mtllib skybox.mtl
o Cube
v 1.000000 1.000000 -1.000000
v 1.000000 -1.000000 -1.000000
v 1.000000 1.000000 1.000000
v 1.000000 -1.000000 1.000000
v -1.000000 1.000000 -1.000000
v -1.000000 -1.000000 -1.000000
v -1.000000 1.000000 1.000000
v -1.000000 -1.000000 1.000000
vt 0.000000 0.000000
vt 1.000000 1.000000
vt 0.000000 1.000000
vt 1.000000 0.000000
vt 1.000000 1.000000
vt 0.000000 0.000000
vt 1.000000 0.000000
vt 0.000000 1.000000
vt 1.000000 0.000000
vt 0.000000 1.000000
vt 0.000000 0.000000
vt 1.000000 1.000000
vt 1.000000 0.000000
vt 1.000000 1.000000
vt 1.000000 0.000000
vt 0.000000 1.000000
vt 0.000000 0.000000
vt 1.000000 1.000000
vt 0.000000 1.000000
vt 0.000000 0.000000
vn 0.0000 1.0000 0.0000
vn 0.0000 -1.0000 0.0000
vn 0.0000 0.0000 1.0000
vn 1.0000 0.0000 0.0000
vn 0.0000 0.0000 -1.0000
vn -1.0000 0.0000 0.0000
usemtl bottom
s off
f 8/1/1 2/2/1 6/3/1
f 8/1/1 4/4/1 2/2/1
usemtl top
f 3/5/2 5/6/2 1/7/2
f 3/5/2 7/8/2 5/6/2
usemtl front
f 2/9/3 5/10/3 6/11/3
f 2/9/3 1/12/3 5/10/3
usemtl left
f 6/13/4 7/8/4 8/1/4
f 6/13/4 5/14/4 7/8/4
usemtl back
f 8/15/5 3/16/5 4/17/5
f 8/15/5 7/18/5 3/16/5
usemtl right
f 4/4/6 1/19/6 2/20/6
f 4/4/6 3/5/6 1/19/6
